<svg width="115" height="115" viewBox="0 0 115 115" fill="none" xmlns="http://www.w3.org/2000/svg">
<g clip-path="url(#clip0_260_98)">
<path d="M112.89 57.3971C114.006 57.3971 114.75 58.1149 114.75 59.1916V89.8776C114.75 106.028 105.451 115.001 88.7113 115.001H26.2184C9.47923 115.001 0.179688 106.028 0.179688 89.8776V25.2754C0.179688 9.12488 9.47923 0.152344 26.2184 0.152344H88.7113C105.451 0.152344 114.75 9.12488 114.75 25.2754V53.0903C114.75 54.167 114.006 54.8848 112.89 54.8848H60.6267C59.5108 54.8848 58.7668 54.167 58.7668 53.0903V31.7356H56.1629V83.4174H58.7668V59.1916C58.7668 58.1149 59.5108 57.3971 60.6267 57.3971H112.89Z" fill="black"/>
</g>
<defs>
<clipPath id="clip0_260_98">
<rect width="115" height="115" fill="white"/>
</clipPath>
</defs>
</svg>
