<svg width="164" height="164" viewBox="0 0 164 164" fill="none" xmlns="http://www.w3.org/2000/svg">
<path d="M58.0859 13.668C52.649 13.668 47.4348 15.8278 43.5903 19.6723C39.7458 23.5168 37.5859 28.731 37.5859 34.168C37.5859 39.6049 39.7458 44.8192 43.5903 48.6637C47.4348 52.5082 52.649 54.668 58.0859 54.668H105.919C111.356 54.668 116.57 52.5082 120.415 48.6637C124.259 44.8192 126.419 39.6049 126.419 34.168C126.419 28.731 124.259 23.5168 120.415 19.6723C116.57 15.8278 111.356 13.668 105.919 13.668H58.0859ZM105.919 61.5013C100.482 61.5013 95.2681 63.6611 91.4236 67.5056C87.5791 71.3501 85.4193 76.5644 85.4193 82.0013C85.4193 87.4382 87.5791 92.6525 91.4236 96.497C95.2681 100.341 100.482 102.501 105.919 102.501C111.356 102.501 116.57 100.341 120.415 96.497C124.259 92.6525 126.419 87.4382 126.419 82.0013C126.419 76.5644 124.259 71.3501 120.415 67.5056C116.57 63.6611 111.356 61.5013 105.919 61.5013ZM37.5859 82.0013C37.5859 76.5644 39.7458 71.3501 43.5903 67.5056C47.4348 63.6611 52.649 61.5013 58.0859 61.5013H78.5859V102.501H58.0859C52.649 102.501 47.4348 100.341 43.5903 96.497C39.7458 92.6525 37.5859 87.4382 37.5859 82.0013ZM58.0859 109.335C54.0314 109.335 50.068 110.537 46.6968 112.79C43.3255 115.042 40.698 118.244 39.1464 121.99C37.5948 125.736 37.1889 129.857 37.9798 133.834C38.7708 137.811 40.7233 141.463 43.5903 144.33C46.4572 147.197 50.11 149.15 54.0866 149.941C58.0632 150.732 62.1851 150.326 65.931 148.774C69.6768 147.223 72.8785 144.595 75.1311 141.224C77.3836 137.853 78.5859 133.889 78.5859 129.835V109.335H58.0859Z" fill="black"/>
</svg>
