<svg width="164" height="164" viewBox="0 0 164 164" fill="none" xmlns="http://www.w3.org/2000/svg">
<g clip-path="url(#clip0_245_205)">
<mask id="mask0_245_205" style="mask-type:luminance" maskUnits="userSpaceOnUse" x="0" y="0" width="164" height="164">
<path d="M0 0H164V164H0V0Z" fill="white"/>
</mask>
<g mask="url(#mask0_245_205)">
<path fill-rule="evenodd" clip-rule="evenodd" d="M0 0H164V164H0V0ZM125.371 137.487C117.766 137.487 113.467 133.523 110.167 128.125L97.6415 135.403C102.165 144.34 111.411 151.16 125.727 151.16C140.364 151.16 151.263 143.562 151.263 129.683C151.263 116.816 143.869 111.096 130.776 105.473L126.922 103.826C120.308 100.956 117.445 99.0902 117.445 94.464C117.445 90.7262 120.315 87.863 124.825 87.863C129.246 87.863 132.095 89.7285 134.74 94.464L146.739 86.7628C141.662 77.8317 134.624 74.4218 124.825 74.4218C111.062 74.4218 102.254 83.2232 102.254 94.7852C102.254 107.324 109.634 113.262 120.759 117.998L124.613 119.652C131.644 122.727 135.833 124.599 135.833 129.881C135.833 134.296 131.754 137.487 125.371 137.487ZM65.6478 137.384C60.352 137.384 58.1448 133.762 55.7258 129.458L43.1798 137.056C46.8152 144.751 53.9628 151.133 66.297 151.133C79.9568 151.133 89.3117 143.869 89.3117 127.913V75.2965H73.9025V127.708C73.9025 135.409 70.7045 137.384 65.641 137.384H65.6478Z" fill="black"/>
</g>
</g>
<defs>
<clipPath id="clip0_245_205">
<rect width="164" height="164" fill="white"/>
</clipPath>
</defs>
</svg>
