<svg width="164" height="164" viewBox="0 0 164 164" fill="none" xmlns="http://www.w3.org/2000/svg">
<path d="M81.9974 69.0865C89.0357 69.0865 94.7757 74.8265 94.7757 82.0015C94.7757 88.8349 89.0357 94.6432 81.9974 94.6432C74.9591 94.6432 69.2191 88.8349 69.2191 82.0015C69.2191 74.8265 74.9591 69.0865 81.9974 69.0865ZM50.3591 136.668C54.6641 139.265 64.0941 135.302 74.9591 125.052C71.4057 121.02 67.9207 116.647 64.6407 112.068C59.1341 111.541 53.6596 110.72 48.2407 109.608C44.7557 124.232 46.0541 134.277 50.3591 136.668ZM55.2107 97.4449L53.2291 93.9599C52.4774 95.9416 51.7257 97.9232 51.2474 99.8365C53.0924 100.247 55.1424 100.588 57.2607 100.93L55.2107 97.4449ZM99.9007 92.2515L105.436 82.0015L99.9007 71.7515C97.8507 68.1299 95.6641 64.9182 93.6824 61.7065C89.9924 61.5015 86.0974 61.5015 81.9974 61.5015C77.8974 61.5015 74.0024 61.5015 70.3124 61.7065C68.3307 64.9182 66.1441 68.1299 64.0941 71.7515L58.5591 82.0015L64.0941 92.2515C66.1441 95.8732 68.3307 99.0849 70.3124 102.297C74.0024 102.502 77.8974 102.502 81.9974 102.502C86.0974 102.502 89.9924 102.502 93.6824 102.297C95.6641 99.0849 97.8507 95.8732 99.9007 92.2515ZM81.9974 46.3316C80.6991 47.8349 79.3324 49.4065 77.9657 51.2515H86.0291C84.6624 49.4065 83.2957 47.8349 81.9974 46.3316ZM81.9974 117.672C83.2957 116.168 84.6624 114.597 86.0291 112.752H77.9657C79.3324 114.597 80.6991 116.168 81.9974 117.672ZM113.567 27.3349C109.331 24.7382 99.9007 28.7015 89.0357 38.9515C92.5891 42.9832 96.0741 47.3565 99.3541 51.9349C104.957 52.4815 110.492 53.3015 115.754 54.3949C119.239 39.7715 117.941 29.7265 113.567 27.3349ZM108.784 66.5582L110.766 70.0432C111.517 68.0616 112.269 66.0799 112.747 64.1666C110.902 63.7566 108.852 63.4149 106.734 63.0732L108.784 66.5582ZM118.692 18.3832C128.737 24.1232 129.831 39.2249 125.594 56.8549C142.951 61.9799 155.456 70.4532 155.456 82.0015C155.456 93.5499 142.951 102.023 125.594 107.148C129.831 124.778 128.737 139.88 118.692 145.62C108.716 151.36 95.1174 144.8 81.9974 132.295C68.8774 144.8 55.2791 151.36 45.2341 145.62C35.2574 139.88 34.1641 124.778 38.4007 107.148C21.0441 102.023 8.53906 93.5499 8.53906 82.0015C8.53906 70.4532 21.0441 61.9799 38.4007 56.8549C34.1641 39.2249 35.2574 24.1232 45.2341 18.3832C55.2791 12.6432 68.8774 19.2032 81.9974 31.7082C95.1174 19.2032 108.716 12.6432 118.692 18.3832ZM116.711 82.0015C119.034 87.1265 121.084 92.2515 122.792 97.4449C137.142 93.1399 145.206 86.9899 145.206 82.0015C145.206 77.0132 137.142 70.8632 122.792 66.5582C121.084 71.7515 119.034 76.8765 116.711 82.0015ZM47.2841 82.0015C44.9607 76.8765 42.9107 71.7515 41.2024 66.5582C26.8524 70.8632 18.7891 77.0132 18.7891 82.0015C18.7891 86.9899 26.8524 93.1399 41.2024 97.4449C42.9107 92.2515 44.9607 87.1265 47.2841 82.0015ZM108.784 97.4449L106.734 100.93C108.852 100.588 110.902 100.247 112.747 99.8365C112.269 97.9232 111.517 95.9416 110.766 93.9599L108.784 97.4449ZM89.0357 125.052C99.9007 135.302 109.331 139.265 113.567 136.668C117.941 134.277 119.239 124.232 115.754 109.608C110.492 110.702 104.957 111.522 99.3541 112.068C96.0741 116.647 92.5891 121.02 89.0357 125.052ZM55.2107 66.5582L57.2607 63.0732C55.1424 63.4149 53.0924 63.7566 51.2474 64.1666C51.7257 66.0799 52.4774 68.0616 53.2291 70.0432L55.2107 66.5582ZM74.9591 38.9515C64.0941 28.7015 54.6641 24.7382 50.3591 27.3349C46.0541 29.7265 44.7557 39.7715 48.2407 54.3949C53.6596 53.283 59.1341 52.4619 64.6407 51.9349C67.9207 47.3565 71.4057 42.9832 74.9591 38.9515Z" fill="black"/>
</svg>
