<svg width="164" height="164" viewBox="0 0 164 164" fill="none" xmlns="http://www.w3.org/2000/svg">
<g clip-path="url(#clip0_245_212)">
<path d="M82.0078 32.8008C60.1411 32.8008 46.4745 43.7341 41.0078 65.6008C49.2078 54.6674 58.7745 50.5674 69.7078 53.3008C75.9466 54.8588 80.402 59.3824 85.3425 64.3981C93.3853 72.5571 102.685 82.0008 123.008 82.0008C144.874 82.0008 158.541 71.0674 164.008 49.2008C155.808 60.1341 146.241 64.2341 135.308 61.5008C129.069 59.9428 124.614 55.4191 119.673 50.4034C111.637 42.2444 102.337 32.8008 82.0078 32.8008ZM41.0078 82.0008C19.1411 82.0008 5.47448 92.9341 0.0078125 114.801C8.20781 103.867 17.7745 99.7674 28.7078 102.501C34.9466 104.059 39.402 108.582 44.3425 113.598C52.3853 121.757 61.6855 131.201 82.0078 131.201C103.874 131.201 117.541 120.267 123.008 98.4008C114.808 109.334 105.241 113.434 94.3078 110.701C88.069 109.143 83.6136 104.619 78.6731 99.6034C70.6371 91.4445 61.337 82.0008 41.0078 82.0008Z" fill="black"/>
</g>
<defs>
<clipPath id="clip0_245_212">
<rect width="164" height="164" fill="white"/>
</clipPath>
</defs>
</svg>
