<svg width="115" height="115" viewBox="0 0 115 115" fill="none" xmlns="http://www.w3.org/2000/svg">
<g clip-path="url(#clip0_260_100)">
<path d="M57.5 25.6929L69.3594 11.1933C69.3594 11.1933 89.7 11.6246 109.95 21.0354C104.765 28.8746 94.4677 32.7175 94.4677 32.7175C93.7681 25.8223 88.9381 24.1404 73.6048 24.1404L57.5 115L41.2994 24.1212C26.0619 24.1212 21.2319 25.8175 20.5275 32.7079C20.5275 32.7079 10.2446 28.8985 5.05521 21.0642C25.3 11.6485 45.6406 11.2125 45.6406 11.2125L57.5 25.6929L57.4808 25.7025H57.5V25.6929ZM57.5 7.01021C73.8635 6.86646 92.6037 9.54021 111.78 17.9352C114.344 13.2969 115 11.2508 115 11.2508C94.0365 2.9325 74.405 0.071875 57.5 0C40.595 0.071875 20.9635 2.92292 0 11.2556C0 11.2556 0.934375 13.7712 3.22 17.9448C22.3962 9.53062 41.1365 6.87604 57.5 6.99583V7.01021Z" fill="black"/>
</g>
<defs>
<clipPath id="clip0_260_100">
<rect width="115" height="115" fill="white"/>
</clipPath>
</defs>
</svg>
