<svg width="164" height="164" viewBox="0 0 164 164" fill="none" xmlns="http://www.w3.org/2000/svg">
<g clip-path="url(#clip0_411_2)">
<path d="M0 0V164H164V0H0ZM94.3144 71.183H70.9909V143.43H58.1463V71.183H34.8708V59.236H94.3147V71.183H94.3144ZM142.109 136.065C134.279 146.267 111.821 147.825 98.7626 139.337V123.367C105.87 131.13 113.225 132.239 118.956 132.766C136.858 134.255 137.377 119.343 130.13 113.194C119.46 104.583 98.211 99.7911 98.8747 81.1829C98.7203 67.8521 109.07 58.9032 124.472 58.0717C130.308 57.7565 138.627 58.1197 143.859 61.4984V76.5105C131.58 65.2438 106.021 68.2656 112.218 84.9892C117.828 95.3144 137.117 96.3298 145.235 112.681C148.68 121.88 146.762 130.002 142.109 136.065Z" fill="black"/>
</g>
<defs>
<clipPath id="clip0_411_2">
<rect width="164" height="164" fill="white"/>
</clipPath>
</defs>
</svg>
